# xmcd CD database file
#
# Track frame offsets:
#	150
#	24537
#	48283
#	67621
#	83364
#	101608
#	116780
#	153651
#	183053
#	198057
#
# Disc length: 2907 seconds
#
# Revision: 0
# Processed by: cddbd v1.5.2PL0 Copyright (c) Steve Scherf et al.
# Submitted via: CDex 1.51
#
DISCID=6c0b590a
DTITLE=Jazzessence - I Got Rhythm
DYEAR=2000
DGENRE=Jazz
TTITLE0=I Got Rhythm
TTITLE1=Soft Winds
TTITLE2=Flying Home
TTITLE3=Don't by the Way
TTITLE4=Midnight Sun
TTITLE5=How High the Moon
TTITLE6=Perdidio
TTITLE7=Backstage Blues
TTITLE8=Take the A-Train
TTITLE9=Airmail Special
EXTD=YEAR: 2000
EXTT0=
EXTT1=
EXTT2=
EXTT3=
EXTT4=
EXTT5=
EXTT6=
EXTT7=
EXTT8=
EXTT9=
PLAYORDER=
